<svg width="16" height="16" viewBox="0 0 16 16" fill="none" xmlns="http://www.w3.org/2000/svg">
<path d="M7.55067 0.920506C7.73334 0.546279 8.26666 0.546279 8.44933 0.920506L10.6045 5.33558C10.7716 5.67792 11.1187 5.89558 11.4996 5.89691L14.8664 5.9087C15.301 5.91022 15.5269 6.42722 15.2327 6.74713L12.5121 9.70586C12.2921 9.94507 12.2021 10.2763 12.2707 10.5939L13.1918 14.8573C13.2847 15.2873 12.817 15.619 12.4419 15.3892L8.52247 12.9876C8.20186 12.7911 7.79814 12.7911 7.47753 12.9876L3.55814 15.3892C3.18301 15.619 2.71527 15.2873 2.80818 14.8573L3.72926 10.5939C3.79789 10.2763 3.70788 9.94507 3.48792 9.70586L0.767305 6.74712C0.473146 6.42722 0.699023 5.91022 1.13361 5.9087L4.50039 5.89691C4.88134 5.89558 5.22844 5.67792 5.39554 5.33558L7.55067 0.920506Z" fill="#FFB800"/>
<path d="M7.55067 0.920506C7.73334 0.546279 8.26666 0.546279 8.44933 0.920506L10.6045 5.33558C10.7716 5.67792 11.1187 5.89558 11.4996 5.89691L14.8664 5.9087C15.301 5.91022 15.5269 6.42722 15.2327 6.74713L12.5121 9.70586C12.2921 9.94507 12.2021 10.2763 12.2707 10.5939L13.1918 14.8573C13.2847 15.2873 12.817 15.619 12.4419 15.3892L8.52247 12.9876C8.20186 12.7911 7.79814 12.7911 7.47753 12.9876L3.55814 15.3892C3.18301 15.619 2.71527 15.2873 2.80818 14.8573L3.72926 10.5939C3.79789 10.2763 3.70788 9.94507 3.48792 9.70586L0.767305 6.74712C0.473146 6.42722 0.699023 5.91022 1.13361 5.9087L4.50039 5.89691C4.88134 5.89558 5.22844 5.67792 5.39554 5.33558L7.55067 0.920506Z" fill="url(#paint0_radial_114_28)"/>
<defs>
<radialGradient id="paint0_radial_114_28" cx="0" cy="0" r="1" gradientUnits="userSpaceOnUse" gradientTransform="translate(8 8) rotate(90) scale(8)">
<stop stop-color="#F0A4A4" stop-opacity="0.47"/>
<stop offset="0.494792" stop-color="#E25C5C" stop-opacity="0.237448"/>
<stop offset="1" stop-color="#D31313" stop-opacity="0"/>
</radialGradient>
</defs>
</svg>
