<?xml version="1.0" encoding="UTF-8"?><svg id="Laag_1" xmlns="http://www.w3.org/2000/svg" width="175.9" height="44" viewBox="0 0 175.9 44"><g id="EN"><path d="M76.8,27.7h2.5l5.1,9.1v-9.1h2v11.9h-2.5l-5.1-9.1v9.1h-2v-11.9Z" style="fill:#f16900;"/><path d="M97,36.5c-.4,2.6-2.6,3.3-4.2,3.3-2.2,0-4.4-1.2-4.4-4.9s2.2-4.9,4.3-4.9,4.3,1.1,4.3,4.8v.3h-6.6c0,2,.8,3,2.4,3,1.1,.1,2-.6,2.2-1.7l2,.1Zm-2-2.5c-.1-1.6-.9-2.4-2.2-2.4s-2.1,.8-2.3,2.4h4.5Z" style="fill:#f16900;"/><path d="M99.3,31.8h-1.4v-1.5h.8c.7,0,1-.3,1-1v-1.9h1.7v2.9h2.8v1.5h-2.8v4.8c0,1,.3,1.5,1.3,1.5,.4,0,.9-.1,1.3-.2v1.6c-.5,.2-1.1,.3-1.7,.3-2.2,0-2.9-1.2-2.9-3l-.1-5Z" style="fill:#f16900;"/><path d="M105.8,25.5h2v5.7c.7-.9,1.7-1.3,2.8-1.2,1.5,0,3.2,.6,3.2,3.8v5.8h-2v-5.3c0-1.6-.4-2.4-1.8-2.4-.8,0-1.5,.3-2.1,.8v6.9h-2l-.1-14.1Z" style="fill:#f16900;"/><path d="M124.2,36.5c-.4,2.6-2.6,3.3-4.2,3.3-2.2,0-4.4-1.2-4.4-4.9s2.2-4.9,4.3-4.9,4.3,1.1,4.3,4.8v.3h-6.6c0,2,.8,3,2.4,3,1.1,.1,2-.6,2.2-1.7l2,.1Zm-2-2.5c-.1-1.6-.9-2.4-2.3-2.4s-2.1,.8-2.3,2.4h4.6Z" style="fill:#f16900;"/><path d="M126.3,30.3h1.7v1.2c.5-.9,1.5-1.5,2.5-1.4,.4,0,.8,0,1.1,.2v1.7c-.4-.2-.9-.3-1.4-.2-.8-.1-1.5,.3-1.9,.9v6.9h-2v-9.3Z" style="fill:#f16900;"/><path d="M133,25.5h2v14.1h-2v-14.1Z" style="fill:#f16900;"/><path d="M143.2,38.3c-.8,1-2,1.5-3.2,1.4-1.9,0-3-1-3-2.6,0-2.2,2.2-2.7,3.7-2.8l2.2-.2v-.2c0-1.5-.2-2.2-1.7-2.2s-1.8,.7-1.8,1.8h-1.9c0-2.8,2.2-3.4,4-3.4,2.7,0,3.6,1.3,3.6,3.6v4c0,.4,.1,.5,.5,.5,.3,0,.5-.1,.8-.2v1.4c-.5,.2-1,.3-1.5,.3-1.2,0-1.5-.7-1.5-1.3l-.2-.1Zm-.4-3l-1.8,.2c-1.3,.1-2.1,.6-2.1,1.5,0,.8,.5,1.2,1.6,1.2,.9,0,1.7-.3,2.3-.9v-2Z" style="fill:#f16900;"/><path d="M147.6,30.3h1.7v1.2c.7-1,1.9-1.5,3.1-1.4,1.6,0,3.2,.6,3.2,3.8v5.8h-2v-5.4c0-1.6-.4-2.4-1.8-2.4-.8,0-1.5,.3-2.1,.8v6.9h-2l-.1-9.3Z" style="fill:#f16900;"/><path d="M164.2,38.4c-.6,.9-1.7,1.4-2.8,1.4-2,0-3.9-1.3-3.9-4.8s1.9-4.9,3.9-4.9c1,0,1.9,.4,2.6,1.1v-5.6h2v14.1h-1.8v-1.3Zm-.2-5.9c-.5-.5-1.3-.8-2-.8-1.6,0-2.4,1.1-2.4,3.1s.8,3.2,2.4,3.2c.7,0,1.5-.3,2-.8v-4.7Z" style="fill:#f16900;"/><path d="M169.9,36.6c.1,1.1,1.1,1.9,2.2,1.8,1,0,1.8-.5,1.8-1.3,0-1-1.1-1.1-2.8-1.6-1.3-.4-2.8-.9-2.8-2.7,0-2,1.8-2.7,3.6-2.7,2.1,0,3.6,1,3.7,2.9h-2c0-.9-.8-1.5-1.7-1.5h-.1c-.9,0-1.5,.4-1.5,1.1,0,1,1.2,1.1,2.9,1.5,1.4,.4,2.8,1,2.8,2.8,0,2.1-2,2.9-3.9,2.9-2.3,0-4-1.1-4.2-3.2h2Z" style="fill:#f16900;"/></g><g id="Laag_2"><path d="M42.4,30.3v-.7c3.4-.9,6.3-3.4,6.3-9.9V8.7c-.1-2.7,.3-5.4,1.1-8.1C48.5,.2,47,0,45.6,0,41.6,0,38.5,2,38.5,6.9V39.5h28.9v-9.3h-25v.1Z" style="fill:#f16900;"/><path d="M29.7,0C28.3,0,26.9,.2,25.6,.6c.7,2.4,1.1,4.9,1,7.5v10.7c-.1,2.9,.7,5.8,2.3,8.2l-.8,.5L11.1,.6H0V39.6H10V23.2c.1-2.7-.3-5.3-1.2-7.9l.7-.4c1,1.9,1.8,3.4,2.8,4.8l12.9,19.8h11.5V7.1C36.8,2.1,33.8,0,29.7,0Z" style="fill:#f16900;"/></g></svg>